<svg width="326" height="56" viewBox="0 0 326 56" fill="none" xmlns="http://www.w3.org/2000/svg">
<path d="M81.7322 19.4567C81.647 18.5973 81.2813 17.9297 80.6349 17.4538C79.9886 16.978 79.1115 16.7401 78.0036 16.7401C77.2507 16.7401 76.6151 16.8466 76.0966 17.0597C75.5781 17.2656 75.1804 17.5533 74.9034 17.9226C74.6335 18.2919 74.4986 18.7109 74.4986 19.1797C74.4844 19.5703 74.5661 19.9112 74.7436 20.2024C74.9283 20.4936 75.1804 20.7457 75.5 20.9588C75.8196 21.1648 76.1889 21.3459 76.608 21.5021C77.027 21.6513 77.4744 21.7791 77.9503 21.8857L79.9105 22.3544C80.8622 22.5675 81.7358 22.8516 82.5312 23.2067C83.3267 23.5618 84.0156 23.9986 84.598 24.517C85.1804 25.0355 85.6314 25.6463 85.951 26.3494C86.2777 27.0526 86.4446 27.8587 86.4517 28.7678C86.4446 30.103 86.1037 31.2607 85.429 32.2408C84.7614 33.2138 83.7955 33.9702 82.5312 34.5099C81.2741 35.0426 79.7578 35.3089 77.9822 35.3089C76.2209 35.3089 74.6868 35.0391 73.38 34.4993C72.0803 33.9595 71.0646 33.1605 70.3331 32.1023C69.6087 31.0369 69.2287 29.7195 69.1932 28.1499H73.657C73.7067 28.8814 73.9162 29.4922 74.2855 29.9822C74.6619 30.4652 75.1626 30.831 75.7876 31.0795C76.4197 31.321 77.1335 31.4418 77.929 31.4418C78.7102 31.4418 79.3885 31.3281 79.9638 31.1009C80.5462 30.8736 80.9972 30.5575 81.3168 30.1527C81.6364 29.7479 81.7962 29.2827 81.7962 28.7571C81.7962 28.267 81.6506 27.8551 81.3594 27.5213C81.0753 27.1875 80.6563 26.9034 80.1023 26.669C79.5554 26.4347 78.8842 26.2216 78.0888 26.0298L75.7131 25.4332C73.8736 24.9858 72.4212 24.2862 71.3558 23.3345C70.2905 22.3828 69.7614 21.1009 69.7685 19.4886C69.7614 18.1676 70.1129 17.0135 70.8232 16.0263C71.5405 15.0391 72.5241 14.2685 73.7741 13.7145C75.0241 13.1605 76.4446 12.8835 78.0355 12.8835C79.6548 12.8835 81.0682 13.1605 82.2756 13.7145C83.4901 14.2685 84.4347 15.0391 85.1094 16.0263C85.7841 17.0135 86.1321 18.157 86.1534 19.4567H81.7322ZM96.9267 35.3196C95.2434 35.3196 93.7946 34.9787 92.5801 34.2969C91.3727 33.608 90.4423 32.6349 89.7889 31.3778C89.1355 30.1136 88.8088 28.6186 88.8088 26.8928C88.8088 25.2095 89.1355 23.7322 89.7889 22.4609C90.4423 21.1896 91.362 20.1989 92.5481 19.4886C93.7413 18.7784 95.1404 18.4233 96.7456 18.4233C97.8251 18.4233 98.8301 18.5973 99.7605 18.9453C100.698 19.2862 101.515 19.8011 102.211 20.4901C102.914 21.179 103.461 22.0455 103.851 23.0895C104.242 24.1264 104.437 25.3409 104.437 26.733V27.9794H90.6199V25.1669H100.165C100.165 24.5135 100.023 23.9347 99.7392 23.4304C99.4551 22.9261 99.0609 22.532 98.5566 22.2479C98.0595 21.9567 97.4806 21.8111 96.8201 21.8111C96.1312 21.8111 95.5204 21.9709 94.9877 22.2905C94.4622 22.603 94.0502 23.0256 93.752 23.5582C93.4537 24.0838 93.301 24.6697 93.2939 25.3161V27.9901C93.2939 28.7997 93.443 29.4993 93.7413 30.0888C94.0467 30.6783 94.4764 31.1328 95.0304 31.4524C95.5843 31.772 96.2413 31.9318 97.0012 31.9318C97.5055 31.9318 97.9672 31.8608 98.3862 31.7188C98.8052 31.5767 99.1639 31.3636 99.4622 31.0795C99.7605 30.7955 99.9877 30.4474 100.144 30.0355L104.341 30.3125C104.128 31.321 103.692 32.2017 103.031 32.9545C102.378 33.7003 101.532 34.2827 100.496 34.7017C99.4657 35.1136 98.2761 35.3196 96.9267 35.3196ZM112.065 35.3089C111.021 35.3089 110.091 35.1278 109.274 34.7656C108.457 34.3963 107.811 33.853 107.335 33.1357C106.866 32.4112 106.632 31.5092 106.632 30.4297C106.632 29.5206 106.799 28.7571 107.133 28.1392C107.466 27.5213 107.921 27.0241 108.496 26.6477C109.072 26.2713 109.725 25.9872 110.456 25.7955C111.195 25.6037 111.969 25.4688 112.779 25.3906C113.731 25.2912 114.498 25.1989 115.08 25.1136C115.662 25.0213 116.085 24.8864 116.348 24.7088C116.611 24.5312 116.742 24.2685 116.742 23.9205V23.8565C116.742 23.1818 116.529 22.6598 116.103 22.2905C115.684 21.9212 115.087 21.7365 114.313 21.7365C113.496 21.7365 112.846 21.9176 112.363 22.2798C111.881 22.6349 111.561 23.0824 111.405 23.6222L107.207 23.2812C107.42 22.2869 107.839 21.4276 108.464 20.7031C109.089 19.9716 109.895 19.4105 110.883 19.0199C111.877 18.6222 113.028 18.4233 114.334 18.4233C115.243 18.4233 116.113 18.5298 116.944 18.7429C117.782 18.956 118.525 19.2862 119.171 19.7337C119.824 20.1811 120.339 20.7564 120.716 21.4595C121.092 22.1555 121.28 22.9901 121.28 23.9631V35H116.976V32.7308H116.849C116.586 33.2422 116.234 33.6932 115.794 34.0838C115.354 34.4673 114.824 34.7692 114.206 34.9893C113.589 35.2024 112.875 35.3089 112.065 35.3089ZM113.365 32.1768C114.032 32.1768 114.622 32.0455 115.133 31.7827C115.645 31.5128 116.046 31.1506 116.337 30.696C116.628 30.2415 116.774 29.7266 116.774 29.1513V27.4148C116.632 27.5071 116.437 27.5923 116.188 27.6705C115.947 27.7415 115.673 27.8089 115.368 27.8729C115.062 27.9297 114.757 27.983 114.452 28.0327C114.146 28.0753 113.869 28.1143 113.621 28.1499C113.088 28.228 112.623 28.3523 112.225 28.5227C111.827 28.6932 111.518 28.924 111.298 29.2152C111.078 29.4993 110.968 29.8544 110.968 30.2805C110.968 30.8984 111.192 31.3707 111.639 31.6974C112.094 32.017 112.669 32.1768 113.365 32.1768ZM124.801 35V18.6364H129.201V21.4915H129.372C129.67 20.4759 130.171 19.7088 130.874 19.1903C131.577 18.6648 132.387 18.402 133.303 18.402C133.53 18.402 133.775 18.4162 134.038 18.4446C134.301 18.473 134.531 18.5121 134.73 18.5618V22.5888C134.517 22.5249 134.222 22.468 133.846 22.4183C133.47 22.3686 133.125 22.3438 132.813 22.3438C132.145 22.3438 131.548 22.4893 131.023 22.7805C130.504 23.0646 130.093 23.4624 129.787 23.9737C129.489 24.4851 129.34 25.0746 129.34 25.7422V35H124.801ZM143.708 35.3196C142.032 35.3196 140.591 34.9645 139.383 34.2543C138.183 33.5369 137.26 32.5426 136.613 31.2713C135.974 30 135.654 28.5369 135.654 26.8821C135.654 25.206 135.978 23.7358 136.624 22.4716C137.277 21.2003 138.204 20.2095 139.404 19.4993C140.605 18.782 142.032 18.4233 143.687 18.4233C145.115 18.4233 146.365 18.6825 147.437 19.201C148.51 19.7195 149.358 20.4474 149.983 21.3849C150.608 22.3224 150.953 23.4233 151.017 24.6875H146.734C146.613 23.8707 146.294 23.2138 145.775 22.7166C145.264 22.2124 144.593 21.9602 143.762 21.9602C143.059 21.9602 142.444 22.152 141.919 22.5355C141.4 22.9119 140.995 23.4624 140.704 24.1868C140.413 24.9112 140.267 25.7884 140.267 26.8182C140.267 27.8622 140.409 28.75 140.694 29.4815C140.985 30.2131 141.393 30.7706 141.919 31.1541C142.444 31.5376 143.059 31.7294 143.762 31.7294C144.28 31.7294 144.745 31.6229 145.157 31.4098C145.576 31.1967 145.921 30.8878 146.191 30.483C146.468 30.071 146.649 29.5774 146.734 29.0021H151.017C150.946 30.2521 150.605 31.353 149.994 32.3047C149.39 33.2493 148.556 33.9879 147.49 34.5206C146.425 35.0533 145.164 35.3196 143.708 35.3196ZM158.461 25.5398V35H153.922V13.1818H158.333V21.5234H158.525C158.894 20.5575 159.491 19.8011 160.314 19.2543C161.138 18.7003 162.172 18.4233 163.415 18.4233C164.551 18.4233 165.542 18.6719 166.387 19.169C167.239 19.6591 167.9 20.3658 168.368 21.2891C168.844 22.2053 169.079 23.3026 169.072 24.581V35H164.533V25.3906C164.54 24.3821 164.285 23.5973 163.766 23.0362C163.255 22.4751 162.537 22.1946 161.614 22.1946C160.996 22.1946 160.449 22.326 159.974 22.5888C159.505 22.8516 159.135 23.2351 158.866 23.7393C158.603 24.2365 158.468 24.8366 158.461 25.5398ZM187.196 20.2344C187.047 19.7159 186.837 19.2578 186.567 18.8601C186.297 18.4553 185.967 18.1143 185.576 17.8374C185.193 17.5533 184.752 17.3366 184.255 17.1875C183.765 17.0384 183.222 16.9638 182.625 16.9638C181.51 16.9638 180.53 17.2408 179.685 17.7947C178.847 18.3487 178.194 19.1548 177.725 20.2131C177.256 21.2642 177.022 22.5497 177.022 24.0696C177.022 25.5895 177.252 26.8821 177.714 27.9474C178.176 29.0128 178.829 29.826 179.674 30.3871C180.52 30.9411 181.517 31.218 182.668 31.218C183.712 31.218 184.603 31.0334 185.342 30.6641C186.088 30.2876 186.656 29.7585 187.047 29.0767C187.444 28.3949 187.643 27.5888 187.643 26.6584L188.581 26.7969H182.956V23.3239H192.086V26.0724C192.086 27.9901 191.681 29.6378 190.871 31.0156C190.061 32.3864 188.946 33.4446 187.526 34.1903C186.105 34.929 184.479 35.2983 182.647 35.2983C180.601 35.2983 178.804 34.8473 177.256 33.9453C175.708 33.0362 174.5 31.7472 173.634 30.0781C172.775 28.402 172.345 26.4134 172.345 24.1122C172.345 22.3437 172.6 20.767 173.112 19.3821C173.63 17.9901 174.355 16.8111 175.285 15.8452C176.216 14.8793 177.299 14.1442 178.534 13.6399C179.77 13.1357 181.109 12.8835 182.551 12.8835C183.787 12.8835 184.937 13.0646 186.002 13.4268C187.068 13.782 188.012 14.2862 188.836 14.9396C189.667 15.593 190.346 16.3707 190.871 17.2727C191.397 18.1676 191.734 19.1548 191.883 20.2344H187.196ZM200.004 13.1818V35H195.465V13.1818H200.004ZM211.033 35.3196C209.378 35.3196 207.947 34.968 206.739 34.2649C205.539 33.5547 204.612 32.5675 203.959 31.3033C203.305 30.032 202.979 28.5582 202.979 26.8821C202.979 25.1918 203.305 23.7145 203.959 22.4503C204.612 21.179 205.539 20.1918 206.739 19.4886C207.947 18.7784 209.378 18.4233 211.033 18.4233C212.688 18.4233 214.115 18.7784 215.315 19.4886C216.523 20.1918 217.453 21.179 218.107 22.4503C218.76 23.7145 219.087 25.1918 219.087 26.8821C219.087 28.5582 218.76 30.032 218.107 31.3033C217.453 32.5675 216.523 33.5547 215.315 34.2649C214.115 34.968 212.688 35.3196 211.033 35.3196ZM211.054 31.804C211.807 31.804 212.435 31.5909 212.94 31.1648C213.444 30.7315 213.824 30.142 214.08 29.3963C214.342 28.6506 214.474 27.8018 214.474 26.8501C214.474 25.8984 214.342 25.0497 214.08 24.304C213.824 23.5582 213.444 22.9687 212.94 22.5355C212.435 22.1023 211.807 21.8857 211.054 21.8857C210.294 21.8857 209.655 22.1023 209.136 22.5355C208.625 22.9687 208.238 23.5582 207.975 24.304C207.719 25.0497 207.592 25.8984 207.592 26.8501C207.592 27.8018 207.719 28.6506 207.975 29.3963C208.238 30.142 208.625 30.7315 209.136 31.1648C209.655 31.5909 210.294 31.804 211.054 31.804ZM222.123 35V13.1818H226.661V21.3849H226.8C226.999 20.9446 227.286 20.4972 227.663 20.0426C228.046 19.581 228.543 19.1974 229.154 18.892C229.772 18.5795 230.539 18.4233 231.455 18.4233C232.648 18.4233 233.749 18.7358 234.758 19.3608C235.766 19.9787 236.572 20.9126 237.176 22.1626C237.78 23.4055 238.082 24.9645 238.082 26.8395C238.082 28.6648 237.787 30.206 237.197 31.4631C236.615 32.7131 235.82 33.6612 234.811 34.3075C233.81 34.9467 232.688 35.2663 231.445 35.2663C230.564 35.2663 229.815 35.1207 229.197 34.8295C228.586 34.5384 228.085 34.1726 227.695 33.7322C227.304 33.2848 227.006 32.8338 226.8 32.3793H226.597V35H222.123ZM226.565 26.8182C226.565 27.7912 226.7 28.6399 226.97 29.3643C227.24 30.0888 227.631 30.6534 228.142 31.0582C228.653 31.456 229.275 31.6548 230.006 31.6548C230.745 31.6548 231.37 31.4524 231.881 31.0476C232.393 30.6357 232.78 30.0675 233.043 29.343C233.313 28.6115 233.447 27.7699 233.447 26.8182C233.447 25.8736 233.316 25.0426 233.053 24.3253C232.79 23.608 232.403 23.0469 231.892 22.642C231.381 22.2372 230.752 22.0348 230.006 22.0348C229.268 22.0348 228.643 22.2301 228.131 22.6207C227.627 23.0114 227.24 23.5653 226.97 24.2827C226.7 25 226.565 25.8452 226.565 26.8182ZM245.776 35.3089C244.732 35.3089 243.802 35.1278 242.985 34.7656C242.168 34.3963 241.522 33.853 241.046 33.1357C240.577 32.4112 240.343 31.5092 240.343 30.4297C240.343 29.5206 240.51 28.7571 240.844 28.1392C241.177 27.5213 241.632 27.0241 242.207 26.6477C242.782 26.2713 243.436 25.9872 244.167 25.7955C244.906 25.6037 245.68 25.4688 246.49 25.3906C247.442 25.2912 248.209 25.1989 248.791 25.1136C249.373 25.0213 249.796 24.8864 250.059 24.7088C250.322 24.5312 250.453 24.2685 250.453 23.9205V23.8565C250.453 23.1818 250.24 22.6598 249.814 22.2905C249.395 21.9212 248.798 21.7365 248.024 21.7365C247.207 21.7365 246.557 21.9176 246.074 22.2798C245.591 22.6349 245.272 23.0824 245.116 23.6222L240.918 23.2812C241.131 22.2869 241.55 21.4276 242.175 20.7031C242.8 19.9716 243.606 19.4105 244.594 19.0199C245.588 18.6222 246.738 18.4233 248.045 18.4233C248.954 18.4233 249.824 18.5298 250.655 18.7429C251.493 18.956 252.236 19.2862 252.882 19.7337C253.535 20.1811 254.05 20.7564 254.427 21.4595C254.803 22.1555 254.991 22.9901 254.991 23.9631V35H250.687V32.7308H250.559C250.297 33.2422 249.945 33.6932 249.505 34.0838C249.064 34.4673 248.535 34.7692 247.917 34.9893C247.3 35.2024 246.586 35.3089 245.776 35.3089ZM247.076 32.1768C247.743 32.1768 248.333 32.0455 248.844 31.7827C249.356 31.5128 249.757 31.1506 250.048 30.696C250.339 30.2415 250.485 29.7266 250.485 29.1513V27.4148C250.343 27.5071 250.148 27.5923 249.899 27.6705C249.657 27.7415 249.384 27.8089 249.079 27.8729C248.773 27.9297 248.468 27.983 248.162 28.0327C247.857 28.0753 247.58 28.1143 247.331 28.1499C246.799 28.228 246.334 28.3523 245.936 28.5227C245.538 28.6932 245.229 28.924 245.009 29.2152C244.789 29.4993 244.679 29.8544 244.679 30.2805C244.679 30.8984 244.903 31.3707 245.35 31.6974C245.805 32.017 246.38 32.1768 247.076 32.1768ZM263.051 13.1818V35H258.512V13.1818H263.051ZM269.339 35.277C268.636 35.277 268.032 35.0284 267.528 34.5312C267.031 34.027 266.782 33.4233 266.782 32.7202C266.782 32.0241 267.031 31.4276 267.528 30.9304C268.032 30.4332 268.636 30.1847 269.339 30.1847C270.021 30.1847 270.617 30.4332 271.129 30.9304C271.64 31.4276 271.896 32.0241 271.896 32.7202C271.896 33.1889 271.775 33.6186 271.533 34.0092C271.299 34.3928 270.99 34.7017 270.607 34.9361C270.223 35.1634 269.8 35.277 269.339 35.277ZM275.622 41.1364V18.6364H280.096V21.3849H280.298C280.497 20.9446 280.785 20.4972 281.161 20.0426C281.545 19.581 282.042 19.1974 282.653 18.892C283.271 18.5795 284.038 18.4233 284.954 18.4233C286.147 18.4233 287.248 18.7358 288.257 19.3608C289.265 19.9787 290.071 20.9126 290.675 22.1626C291.279 23.4055 291.58 24.9645 291.58 26.8395C291.58 28.6648 291.286 30.206 290.696 31.4631C290.114 32.7131 289.318 33.6612 288.31 34.3075C287.308 34.9467 286.186 35.2663 284.943 35.2663C284.063 35.2663 283.313 35.1207 282.695 34.8295C282.085 34.5384 281.584 34.1726 281.193 33.7322C280.803 33.2848 280.504 32.8338 280.298 32.3793H280.16V41.1364H275.622ZM280.064 26.8182C280.064 27.7912 280.199 28.6399 280.469 29.3643C280.739 30.0888 281.129 30.6534 281.641 31.0582C282.152 31.456 282.774 31.6548 283.505 31.6548C284.244 31.6548 284.869 31.4524 285.38 31.0476C285.892 30.6357 286.279 30.0675 286.541 29.343C286.811 28.6115 286.946 27.7699 286.946 26.8182C286.946 25.8736 286.815 25.0426 286.552 24.3253C286.289 23.608 285.902 23.0469 285.391 22.642C284.879 22.2372 284.251 22.0348 283.505 22.0348C282.767 22.0348 282.142 22.2301 281.63 22.6207C281.126 23.0114 280.739 23.5653 280.469 24.2827C280.199 25 280.064 25.8452 280.064 26.8182ZM294.606 35V18.6364H299.006V21.4915H299.176C299.475 20.4759 299.975 19.7088 300.678 19.1903C301.382 18.6648 302.191 18.402 303.107 18.402C303.335 18.402 303.58 18.4162 303.843 18.4446C304.105 18.473 304.336 18.5121 304.535 18.5618V22.5888C304.322 22.5249 304.027 22.468 303.651 22.4183C303.274 22.3686 302.93 22.3438 302.617 22.3438C301.95 22.3438 301.353 22.4893 300.828 22.7805C300.309 23.0646 299.897 23.4624 299.592 23.9737C299.294 24.4851 299.144 25.0746 299.144 25.7422V35H294.606ZM313.513 35.3196C311.858 35.3196 310.427 34.968 309.22 34.2649C308.02 33.5547 307.093 32.5675 306.439 31.3033C305.786 30.032 305.459 28.5582 305.459 26.8821C305.459 25.1918 305.786 23.7145 306.439 22.4503C307.093 21.179 308.02 20.1918 309.22 19.4886C310.427 18.7784 311.858 18.4233 313.513 18.4233C315.168 18.4233 316.596 18.7784 317.796 19.4886C319.003 20.1918 319.934 21.179 320.587 22.4503C321.24 23.7145 321.567 25.1918 321.567 26.8821C321.567 28.5582 321.24 30.032 320.587 31.3033C319.934 32.5675 319.003 33.5547 317.796 34.2649C316.596 34.968 315.168 35.3196 313.513 35.3196ZM313.534 31.804C314.287 31.804 314.916 31.5909 315.42 31.1648C315.924 30.7315 316.304 30.142 316.56 29.3963C316.823 28.6506 316.954 27.8018 316.954 26.8501C316.954 25.8984 316.823 25.0497 316.56 24.304C316.304 23.5582 315.924 22.9687 315.42 22.5355C314.916 22.1023 314.287 21.8857 313.534 21.8857C312.775 21.8857 312.135 22.1023 311.617 22.5355C311.105 22.9687 310.718 23.5582 310.456 24.304C310.2 25.0497 310.072 25.8984 310.072 26.8501C310.072 27.8018 310.2 28.6506 310.456 29.3963C310.718 30.142 311.105 30.7315 311.617 31.1648C312.135 31.5909 312.775 31.804 313.534 31.804Z" fill="#272727"/>
<path d="M49.3554 38.7798C58.2149 29.9202 58.2147 15.5043 49.3554 6.64467C40.4957 -2.21499 26.0799 -2.21499 17.2206 6.64467C9.70438 14.1609 8.56606 25.3394 13.8025 34.0686C13.8025 34.0686 14.1787 34.6993 13.6707 35.2073C10.7725 38.1053 2.07758 46.8004 2.07758 46.8004C-0.229921 49.1077 -0.779241 52.3342 1.26704 54.3809L1.61937 54.7328C3.66565 56.7795 6.8923 56.2303 9.19962 53.9228C9.19962 53.9228 17.8762 45.2461 20.7684 42.3541C21.3007 41.8217 21.9316 42.1979 21.9316 42.1979C30.6606 47.4342 41.8392 46.296 49.3554 38.7798ZM21.4156 34.5846C14.8693 28.0382 14.8694 17.3866 21.4158 10.8403C27.9622 4.29405 38.6138 4.29387 45.16 10.8403C51.7064 17.3865 51.7064 28.0382 45.16 34.5846C38.6136 41.1308 27.9622 41.1308 21.4156 34.5846Z" fill="url(#paint0_linear_355_311)"/>
<path d="M32.6111 12.2164C33.0503 11.3266 33.7687 11.3266 34.208 12.2164L36.0922 16.0344C36.5315 16.9241 37.694 17.7688 38.6758 17.9114L42.8888 18.5235C43.8706 18.6662 44.0928 19.3496 43.3821 20.0422L40.3338 23.0139C39.6232 23.7065 39.1793 25.0732 39.3469 26.0511L40.0661 30.2474C40.2341 31.2254 39.6525 31.6477 38.7743 31.186L35.0059 29.2049C34.1277 28.7431 32.6904 28.7432 31.8122 29.2049L28.0442 31.186C27.166 31.6477 26.5848 31.2254 26.7524 30.2474L27.472 26.0511C27.6398 25.0732 27.1956 23.7065 26.485 23.0139L23.4364 20.0422C22.7258 19.3496 22.9479 18.6662 23.9298 18.5235L28.1429 17.9114C29.1248 17.7688 30.2873 16.9241 30.7266 16.0344L32.6111 12.2164Z" fill="url(#paint1_linear_355_311)"/>
<defs>
<linearGradient id="paint0_linear_355_311" x1="28.0001" y1="-7.24792e-05" x2="-7" y2="56" gradientUnits="userSpaceOnUse">
<stop stop-color="#2ECCCC"/>
<stop offset="1" stop-color="#3F94F5"/>
</linearGradient>
<linearGradient id="paint1_linear_355_311" x1="28.0001" y1="-7.24792e-05" x2="-7" y2="56" gradientUnits="userSpaceOnUse">
<stop stop-color="#2ECCCC"/>
<stop offset="1" stop-color="#3F94F5"/>
</linearGradient>
</defs>
</svg>
